HIERARCHY
ROOT Hips
{
	OFFSET 0.00000 0.00000 0.00000
	CHANNELS 6 Xposition Yposition Zposition Zrotation Yrotation Xrotation 
	JOINT LHipJoint
	{
		OFFSET 0 0 0
		CHANNELS 3 Zrotation Yrotation Xrotation
		JOINT LeftUpLeg
		{
			OFFSET 1.84395 -1.68683 0.74144
			CHANNELS 3 Zrotation Yrotation Xrotation
			JOINT LeftLeg
			{
				OFFSET 2.27037 -6.23779 0.00000
				CHANNELS 3 Zrotation Yrotation Xrotation
				JOINT LeftFoot
				{
					OFFSET 2.56918 -7.05877 0.00000
					CHANNELS 3 Zrotation Yrotation Xrotation
					JOINT LeftToeBase
					{
						OFFSET 0.22276 -0.61202 1.71784
						CHANNELS 3 Zrotation Yrotation Xrotation
						End Site
						{
							OFFSET 0.00000 -0.00000 0.91613
						}
					}
				}
			}
		}
	}
	JOINT RHipJoint
	{
		OFFSET 0 0 0
		CHANNELS 3 Zrotation Yrotation Xrotation
		JOINT RightUpLeg
		{
			OFFSET -1.76833 -1.68684 0.74144
			CHANNELS 3 Zrotation Yrotation Xrotation
			JOINT RightLeg
			{
				OFFSET -2.49360 -6.85110 0.00000
				CHANNELS 3 Zrotation Yrotation Xrotation
				JOINT RightFoot
				{
					OFFSET -2.55538 -7.02085 0.00000
					CHANNELS 3 Zrotation Yrotation Xrotation
					JOINT RightToeBase
					{
						OFFSET -0.21516 -0.59115 1.68050
						CHANNELS 3 Zrotation Yrotation Xrotation
						End Site
						{
							OFFSET -0.00000 -0.00000 0.89604
						}
					}
				}
			}
		}
	}
	JOINT LowerBack
	{
		OFFSET 0 0 0
		CHANNELS 3 Zrotation Yrotation Xrotation
		JOINT Spine
		{
			OFFSET 0.06382 1.72312 -0.19613
			CHANNELS 3 Zrotation Yrotation Xrotation
			JOINT Spine1
			{
				OFFSET -0.00055 1.73507 0.23859
				CHANNELS 3 Zrotation Yrotation Xrotation
				JOINT Neck
				{
					OFFSET 0 0 0
					CHANNELS 3 Zrotation Yrotation Xrotation
					JOINT Neck1
					{
						OFFSET 0.03638 1.65562 0.09633
						CHANNELS 3 Zrotation Yrotation Xrotation
						JOINT Head
						{
							OFFSET 0.06388 1.62807 -0.32386
							CHANNELS 3 Zrotation Yrotation Xrotation
							End Site
							{
								OFFSET 0.00995 1.67644 -0.12021
							}
						}
					}
				}
				JOINT LeftShoulder
				{
					OFFSET 0 0 0
					CHANNELS 3 Zrotation Yrotation Xrotation
					JOINT LeftArm
					{
						OFFSET 3.09648 1.42991 0.28122
						CHANNELS 3 Zrotation Yrotation Xrotation
						JOINT LeftForeArm
						{
							OFFSET 5.11878 -0.00000 -0.00000
							CHANNELS 3 Zrotation Yrotation Xrotation
							JOINT LeftHand
							{
								OFFSET 3.59971 -0.00000 0.00000
								CHANNELS 3 Zrotation Yrotation Xrotation
								JOINT LeftFingerBase
								{
									OFFSET 0 0 0
									CHANNELS 3 Zrotation Yrotation Xrotation
									JOINT LeftHandIndex1
									{
										OFFSET 0.62877 -0.00000 0.00000
										CHANNELS 3 Zrotation Yrotation Xrotation
										End Site
										{
											OFFSET 0.50693 -0.00000 0.00000
										}
									}
								}
								JOINT LThumb
								{
									OFFSET 0 0 0
									CHANNELS 3 Zrotation Yrotation Xrotation
									End Site
									{
										OFFSET 0.51467 -0.00000 0.51467
									}
								}
							}
						}
					}
				}
				JOINT RightShoulder
				{
					OFFSET 0 0 0
					CHANNELS 3 Zrotation Yrotation Xrotation
					JOINT RightArm
					{
						OFFSET -3.33565 1.14597 0.05047
						CHANNELS 3 Zrotation Yrotation Xrotation
						JOINT RightForeArm
						{
							OFFSET -5.49020 -0.00000 0.00000
							CHANNELS 3 Zrotation Yrotation Xrotation
							JOINT RightHand
							{
								OFFSET -3.20659 -0.00000 -0.00000
								CHANNELS 3 Zrotation Yrotation Xrotation
								JOINT RightFingerBase
								{
									OFFSET 0 0 0
									CHANNELS 3 Zrotation Yrotation Xrotation
									JOINT RightHandIndex1
									{
										OFFSET -0.69188 -0.00000 0.00000
										CHANNELS 3 Zrotation Yrotation Xrotation
										End Site
										{
											OFFSET -0.55781 -0.00000 0.00000
										}
									}
								}
								JOINT RThumb
								{
									OFFSET 0 0 0
									CHANNELS 3 Zrotation Yrotation Xrotation
									End Site
									{
										OFFSET -0.56633 -0.00000 0.56633
									}
								}
							}
						}
					}
				}
			}
		}
	}
}
MOTION
Frames: 6
Frame Time: .0083333
0.5284 17.7069 8.6435 -9.9649 4.8710 19.1920 0.0000 0.0000 0.0000 -12.4569 -56.7819 17.9195 0.0682 -1.6843 -4.6340 -3.4579 47.7509 -58.0607 1.3496 7.3545 20.7699 0.0000 0.0000 0.0000 22.5456 30.3723 -2.9311 -0.0068 -0.5308 1.4585 2.0604 -29.1633 -28.6440 -0.6194 -5.0365 14.0126 8.0111 3.3643 10.5456 -1.2010 5.6516 -5.0635 -6.8756 2.1003 -10.5529 -8.3492 -12.1543 -14.0634 20.8198 -18.2409 10.4263 5.8484 -7.5477 8.4198 -0.0000 -0.0000 0.0000 -56.8333 -16.5766 92.0631 122.0054 -55.7515 -87.3221 -0.0000 0.0000 -21.7900 18.2981 -17.8330 -5.7826 -7.1250 0.0000 -0.0000 -6.3769 11.3510 5.0291 -0.0000 -0.0000 0.0000 81.7055 72.8578 45.6211 -13.1481 21.5038 -2.5073 0.0000 0.0000 17.4896 -37.5592 -72.8160 36.3026 7.1250 -0.0000 -0.0000 142.3043 71.8556 154.8930
0.5395 17.7064 8.6441 -9.8170 4.7632 19.2489 0.0000 0.0000 0.0000 -12.6758 -56.7545 17.9088 0.0685 -1.6890 -4.6469 -3.2775 47.5979 -58.1922 1.4072 7.5034 21.2155 0.0000 0.0000 0.0000 22.2839 30.3730 -3.0189 -0.0070 -0.5387 1.4803 2.0897 -29.2095 -28.5093 -0.5807 -4.8797 13.5658 7.7765 3.2801 10.5168 -1.1259 5.5072 -5.0636 -6.6362 2.0486 -10.5863 -8.2821 -12.1094 -14.0942 20.6452 -18.1840 10.5678 5.7893 -7.5212 8.4349 -0.0000 -0.0000 0.0000 -56.8177 -16.4529 92.0726 121.9832 -55.7579 -87.3038 -0.0000 0.0000 -21.5300 18.5255 -17.9174 -5.8858 -7.1250 0.0000 -0.0000 -6.2314 11.2366 4.9277 -0.0000 -0.0000 0.0000 80.8095 72.7720 44.5238 -13.1106 21.4491 -2.4936 0.0000 0.0000 17.6802 -36.8341 -72.6594 35.5640 7.1250 -0.0000 -0.0000 141.6438 72.0387 154.2709
0.5511 17.7061 8.6437 -9.7977 4.6637 19.2740 0.0000 0.0000 0.0000 -12.7713 -56.6888 17.9221 0.0689 -1.6940 -4.6607 -3.0791 47.4280 -58.3372 1.4651 7.6494 21.6542 0.0000 0.0000 0.0000 22.1843 30.3999 -3.0765 -0.0072 -0.5470 1.5032 2.1089 -29.2328 -28.4047 -0.5479 -4.7421 13.1745 7.7236 3.2551 10.5326 -1.0997 5.4686 -5.0492 -6.5722 2.0347 -10.5925 -8.0668 -12.1190 -14.1490 20.5141 -18.2218 10.6143 5.7028 -7.5337 8.4296 0.0000 -0.0000 0.0000 -56.7102 -16.5998 92.2129 121.9264 -55.7744 -87.2568 -0.0000 0.0000 -21.2767 18.7950 -17.7563 -5.9255 -7.1250 0.0000 -0.0000 -6.0461 11.3712 4.7626 0.0000 -0.0000 0.0000 79.0617 72.6094 42.9416 -13.1830 21.5548 -2.5201 0.0000 0.0000 17.4715 -37.1514 -72.3841 35.8358 7.1250 -0.0000 -0.0000 141.8259 72.2293 154.2530
0.5609 17.7047 8.6441 -9.8658 4.5585 19.3095 0.0000 0.0000 0.0000 -12.7156 -56.5822 17.8966 0.0706 -1.7137 -4.7150 -3.0917 47.4379 -58.3266 1.4660 7.6519 21.6616 0.0000 0.0000 0.0000 22.1937 30.4712 -3.1220 -0.0074 -0.5561 1.5281 2.1024 -29.1880 -28.3528 -0.5465 -4.7360 13.1570 7.7892 3.2880 10.5321 -1.1078 5.5204 -5.0200 -6.6242 2.0584 -10.5447 -7.8907 -12.1811 -14.3123 20.5131 -18.3471 10.6524 5.6453 -7.5718 8.4743 0.0000 0.0000 0.0000 -56.5178 -16.9629 92.4393 121.8979 -55.7826 -87.2333 -0.0000 0.0000 -21.0546 19.1631 -17.4979 -5.9651 -7.1250 0.0000 -0.0000 -5.7905 11.5954 4.5322 0.0000 0.0000 0.0000 76.5745 72.4574 40.8803 -13.2684 21.6792 -2.5516 0.0000 0.0000 17.1179 -37.5185 -72.2203 36.1730 7.1250 -0.0000 -0.0000 142.0958 72.3276 154.3728
0.5701 17.7033 8.6458 -9.8561 4.4142 19.3771 0.0000 0.0000 0.0000 -12.7058 -56.4679 17.8202 0.0722 -1.7339 -4.7708 -3.2037 47.5272 -58.2335 1.4401 7.5868 21.4658 0.0000 0.0000 0.0000 22.0957 30.5055 -3.2301 -0.0081 -0.5805 1.5951 2.0990 -29.1231 -28.2273 -0.5407 -4.7114 13.0873 7.7349 3.2943 10.4853 -1.0798 5.5177 -4.9940 -6.5569 2.0661 -10.4947 -7.8251 -12.2103 -14.4935 20.5027 -18.4133 10.7448 5.6118 -7.5829 8.5405 0.0000 0.0000 0.0000 -56.4068 -17.2435 92.5222 121.7602 -55.8224 -87.1194 -0.0000 0.0000 -20.8103 19.4392 -17.6036 -6.0924 -7.1250 0.0000 -0.0000 -5.6138 11.4520 4.4092 0.0000 0.0000 0.0000 74.2476 72.2800 39.3341 -13.3911 21.8576 -2.5971 0.0000 0.0000 16.5907 -36.4491 -72.2259 35.1200 7.1250 -0.0000 -0.0000 141.1469 72.4105 153.6122
0.5805 17.7026 8.6468 -9.7957 4.2905 19.4232 0.0000 0.0000 0.0000 -12.8258 -56.3911 17.8112 0.0729 -1.7415 -4.7917 -3.1000 47.4349 -58.3041 1.4728 7.6688 21.7125 0.0000 0.0000 0.0000 21.9475 30.5215 -3.3268 -0.0090 -0.6112 1.6797 2.0989 -29.0854 -28.1385 -0.5272 -4.6531 12.9219 7.6506 3.2490 10.4782 -0.9965 5.4504 -4.9763 -6.4062 2.0434 -10.4963 -7.8869 -12.2095 -14.5991 20.4497 -18.4053 10.8388 5.6006 -7.5732 8.5887 -0.0000 0.0000 0.0000 -56.4660 -17.3273 92.4270 121.5619 -55.8792 -86.9552 -0.0000 0.0000 -20.5220 19.2607 -18.0419 -6.1766 -7.1250 0.0000 -0.0000 -5.7547 11.0178 4.5725 -0.0000 0.0000 0.0000 72.0064 72.0129 38.3494 -13.6118 22.1770 -2.6798 0.0000 0.0000 15.7509 -35.4432 -72.2976 34.1409 7.1250 -0.0000 -0.0000 140.2771 72.4292 152.9558
